Coordinates
version=1
nRows=29
nColumns=24
inDegrees=yes

Units are S.I. units (second, meters, Newtons, ...)
Angles are in degrees.

endheader
time	pelvis_tilt	pelvis_list	pelvis_rotation	pelvis_tx	pelvis_ty	pelvis_tz	hip_flexion_r	hip_adduction_r	hip_rotation_r	knee_angle_r	ankle_angle_r	subtalar_angle_r	mtp_angle_r	hip_flexion_l	hip_adduction_l	hip_rotation_l	knee_angle_l	ankle_angle_l	subtalar_angle_l	mtp_angle_l	lumbar_extension	lumbar_bending	lumbar_rotation
      8.43000000	     -2.95581876	      3.30970625	      5.88297994	      1.48873301	      0.68412653	     -0.18709242	      7.85877794	      0.72132942	     -0.91262059	     -2.02425180	      6.84600494	     -9.89723880	      0.00000000	     13.87413949	      4.50966077	     -2.02550471	    -58.97607220	     -9.95076535	    -28.19890517	      0.00000000	     -7.15143285	     -3.65490054	     -3.96079711
      8.44000000	     -2.96320843	      3.77901583	      5.44621207	      1.49549567	      0.68498231	     -0.18612625	      7.09095129	      0.38522520	     -0.66234588	     -1.74585503	      7.35263881	     -9.48924512	      0.00000000	     15.11922659	      5.00579484	     -2.32249245	    -58.88364810	     -8.12182371	    -27.65349698	      0.00000000	     -7.25452682	     -4.23343563	     -3.72840373
      8.45000000	     -2.95098427	      4.21500293	      4.97799461	      1.50219357	      0.68569846	     -0.18513699	      6.35518583	      0.06974707	     -0.57832899	     -1.51935898	      7.92242255	     -8.89087360	      0.00000000	     16.27687557	      5.42726740	     -2.64468827	    -58.48986232	     -6.43867288	    -27.03362966	      0.00000000	     -7.37233645	     -4.77146645	     -3.49239009
      8.46000000	     -2.90186105	      4.59339158	      4.47155002	      1.50883836	      0.68627959	     -0.18414041	      5.63696758	     -0.19802416	     -0.61205853	     -1.35535881	      8.54899464	     -8.11585059	      0.00000000	     17.32666244	      5.74989354	     -3.00109507	    -57.81001996	     -4.95513166	    -26.60734540	      0.00000000	     -7.51662088	     -5.22584100	     -3.23165721
      8.47000000	     -2.82097762	      4.90978662	      3.94436774	      1.51544888	      0.68672872	     -0.18314305	      4.94539361	     -0.41026138	     -0.72396365	     -1.27650510	      9.24668842	     -7.24487167	      0.00000000	     18.26710807	      5.97711201	     -3.38301247	    -56.84671223	     -3.73250872	    -26.61178346	      0.00000000	     -7.69121575	     -5.60717930	     -2.94121007
      8.48000000	     -2.76653370	      5.18864191	      3.39153309	      1.52204523	      0.68699457	     -0.18214417	      4.29054998	     -0.58776951	     -0.53036068	     -1.20133432	      9.75798978	     -6.88546641	      0.00000000	     19.15274890	      6.14608573	     -3.79499916	    -55.60280378	     -2.86205128	    -27.19988783	      0.00000000	     -7.81722218	     -5.94816986	     -2.59257114
      8.49000000	     -2.59952689	      5.36485926	      2.87050467	      1.52867116	      0.68723334	     -0.18119973	      3.57708785	     -0.66525185	     -0.58777508	     -1.23935423	     10.50595445	     -6.06307638	      0.00000000	     19.83120528	      6.19992899	     -4.16096036	    -54.09841329	     -2.29450962	    -28.35290662	      0.00000000	     -8.07025720	     -6.15919653	     -2.27558510
      8.50000000	     -2.52268753	      5.44023072	      2.30831094	      1.53530822	      0.68722042	     -0.18019677	      2.96527551	     -0.63072866	     -0.17665504	     -1.28722488	     11.10358071	     -5.89256360	      0.00000000	     20.55375516	      6.08547639	     -4.61798400	    -52.43552605	     -1.65128466	    -29.40781909	      0.00000000	     -8.18979992	     -6.27114383	     -1.87924112
      8.51000000	     -2.34796302	      5.51302769	      1.81728563	      1.54199037	      0.68722813	     -0.17933460	      2.25690474	     -0.60914882	      0.16487181	     -1.36653410	     11.61848010	     -5.75490529	      0.00000000	     21.04196747	      6.04180823	     -4.89251136	    -50.45204862	     -1.76939376	    -31.32930845	      0.00000000	     -8.43317832	     -6.35642238	     -1.56603874
      8.52000000	     -2.21635130	      5.50141422	      1.32272627	      1.54870337	      0.68707385	     -0.17845041	      1.60658172	     -0.49880942	      0.69129926	     -1.47790200	     12.10329946	     -5.84751118	      0.00000000	     21.51509181	      5.87217673	     -5.17392990	    -48.33761727	     -1.74992018	    -32.82049299	      0.00000000	     -8.60962682	     -6.36481147	     -1.21062988
      8.53000000	     -2.07930465	      5.43869933	      0.84136255	      1.55544662	      0.68683279	     -0.17761238	      0.95666051	     -0.34478728	      1.24573931	     -1.60785546	     12.58619817	     -6.01043981	      0.00000000	     21.90566170	      5.64840146	     -5.39285038	    -46.07351105	     -1.69089573	    -33.91273735	      0.00000000	     -8.79033353	     -6.30684784	     -0.84340875
      8.54000000	     -1.98262294	      5.29610165	      0.38718863	      1.56216266	      0.68646412	     -0.17680741	      0.39335891	     -0.11425045	      1.80062808	     -1.83601539	     13.17203602	     -6.11820597	      0.00000000	     22.28302395	      5.34431948	     -5.51451034	    -43.71076268	     -1.48420560	    -34.38317096	      0.00000000	     -8.93930272	     -6.16290147	     -0.52873642
      8.55000000	     -1.82089313	      5.17586656	     -0.05749446	      1.56893937	      0.68609901	     -0.17608271	     -0.26109015	      0.07367166	      2.26657187	     -2.02721278	     13.67017197	     -6.24449767	      0.00000000	     22.47876823	      5.09892527	     -5.50804539	    -41.14794884	     -1.41074270	    -34.65663254	      0.00000000	     -9.15860520	     -6.03898688	     -0.17324783
      8.56000000	     -1.75103397	      4.98849174	     -0.45805328	      1.57570984	      0.68555752	     -0.17543823	     -0.80270580	      0.32379281	      2.68168083	     -2.26390307	     14.26638831	     -6.35176981	      0.00000000	     22.71245193	      4.81497727	     -5.34254904	    -38.50403042	     -1.21437092	    -34.51598854	      0.00000000	     -9.28294073	     -5.83365829	      0.11195086
      8.57000000	     -1.54280052	      4.82316326	     -0.94270855	      1.58249427	      0.68508789	     -0.17475052	     -1.46612690	      0.53679182	      3.16728673	     -2.55736984	     14.83023089	     -6.36708594	      0.00000000	     22.69769258	      4.52039686	     -5.22055646	    -35.70027975	     -0.98019441	    -33.90721274	      0.00000000	     -9.58784216	     -5.67425218	      0.45537440
      8.58000000	     -1.31334597	      4.58836879	     -1.33052795	      1.58937416	      0.68454904	     -0.17415677	     -2.20291915	      0.81758897	      3.45923787	     -2.77854598	     15.31937419	     -6.40505869	      0.00000000	     22.60588838	      4.17757731	     -4.97970517	    -32.88198185	     -0.12353392	    -32.30511250	      0.00000000	     -9.91055649	     -5.43527013	      0.75167505
      8.59000000	     -1.13441783	      4.35448174	     -1.80401213	      1.59631299	      0.68389392	     -0.17353173	     -2.89572963	      1.08427092	      3.90744090	     -2.99494804	     15.79263617	     -6.42231671	      0.00000000	     22.47212514	      3.81184720	     -4.78036931	    -29.92468356	      0.44833345	    -30.84013409	      0.00000000	    -10.16182605	     -5.21252043	      1.15143482
      8.60000000	     -1.02293801	      4.05168794	     -2.18277418	      1.60332094	      0.68307560	     -0.17298618	     -3.55500608	      1.42791927	      4.34672524	     -3.18081823	     16.27355843	     -6.62309074	      0.00000000	     22.37691329	      3.38963030	     -4.51029919	    -26.98755929	      1.40254228	    -28.83246065	      0.00000000	    -10.33912121	     -4.90679647	      1.41055182
      8.61000000	     -0.83843376	      3.76973508	     -2.64247228	      1.61046096	      0.68228023	     -0.17241347	     -4.33082151	      1.72569596	      4.82861731	     -3.31171279	     16.66184021	     -6.75936921	      0.00000000	     22.10261893	      2.96591058	     -4.34876662	    -23.92248920	      2.03698701	    -27.02316518	      0.00000000	    -10.58313819	     -4.64089591	      1.80011113
      8.62000000	     -0.80022662	      3.43677470	     -3.01770023	      1.61769386	      0.68127583	     -0.17192551	     -4.98967813	      2.08005187	      5.31249594	     -3.41345831	     17.03741714	     -7.05389993	      0.00000000	     21.98009870	      2.48660785	     -4.22548374	    -20.95413638	      3.10985595	    -24.63322974	      0.00000000	    -10.64989937	     -4.30545299	      2.07632213
      8.63000000	     -0.71426846	      3.12312121	     -3.42537587	      1.62506652	      0.68029547	     -0.17144793	     -5.73098417	      2.38819912	      5.72376328	     -3.48087385	     17.39627066	     -7.21216862	      0.00000000	     21.73680221	      2.02082211	     -4.21565686	    -17.94321002	      3.98984987	    -22.32820987	      0.00000000	    -10.75638289	     -4.00294740	      2.39776820
      8.64000000	     -0.58352594	      2.82489510	     -3.85672943	      1.63256964	      0.67935130	     -0.17100150	     -6.54841801	      2.64968330	      6.02662491	     -3.51680460	     17.74153892	     -7.20296348	      0.00000000	     21.38346615	      1.57392338	     -4.32140119	    -14.92107618	      4.66900850	    -20.09753519	      0.00000000	    -10.90468791	     -3.72100057	      2.75097858
      8.65000000	     -0.53778212	      2.52269254	     -4.25352058	      1.64019252	      0.67831812	     -0.17061819	     -7.29548119	      2.90527027	      6.20497868	     -3.54437927	     18.12707048	     -7.09019337	      0.00000000	     21.10797553	      1.12853933	     -4.53427996	    -12.02590356	      5.57650144	    -17.51625030	      0.00000000	    -10.93564733	     -3.42498963	      3.04894630
      8.66000000	     -0.54605527	      2.24637178	     -4.61936246	      1.64794715	      0.67724191	     -0.17031210	     -7.99957357	      3.12102351	      6.20411431	     -3.56354302	     18.51254323	     -6.82767442	      0.00000000	     20.84756143	      0.73680715	     -4.74932529	     -9.21343939	      6.37474577	    -15.02293656	      0.00000000	    -10.88443552	     -3.15199033	      3.30888830
      8.67000000	     -0.57706221	      2.00257487	     -4.96573167	      1.65583708	      0.67615613	     -0.17007983	     -8.69697589	      3.29098804	      6.03147587	     -3.56469525	     18.90016606	     -6.44074171	      0.00000000	     20.56222869	      0.41032392	     -4.88947979	     -6.49732354	      6.98807432	    -12.80963894	      0.00000000	    -10.78556082	     -2.90594184	      3.53565642
      8.68000000	     -0.62963727	      1.78481941	     -5.27105461	      1.66386232	      0.67505649	     -0.16993823	     -9.39395368	      3.42730018	      5.73216933	     -3.54081676	     19.27435605	     -5.98444150	      0.00000000	     20.26201628	      0.14234834	     -4.88489939	     -3.92880773	      7.41372280	    -11.00303809	      0.00000000	    -10.64922881	     -2.66965509	      3.72727788
      8.69000000	     -0.71725805	      1.53333672	     -5.54858278	      1.67198974	      0.67392135	     -0.16983940	    -10.07826478	      3.60506231	      5.45443577	     -3.50138901	     19.56358088	     -5.65625701	      0.00000000	     19.97942475	     -0.14342490	     -4.67685551	     -1.57564795	      7.63135160	     -9.82163154	      0.00000000	    -10.45632976	     -2.39089643	      3.86341119
      8.70000000	     -0.80496364	      1.47060331	     -5.76328779	      1.68035530	      0.67280977	     -0.16981605	    -10.75477528	      3.57860734	      4.81428658	     -3.47206964	     19.97622724	     -4.92113610	      0.00000000	     19.77323460	     -0.22115958	     -4.81427801	      0.37351035	      7.86321560	     -8.58425698	      0.00000000	    -10.19757195	     -2.34506306	      3.96647055
      8.71000000	     -0.89970467	      1.31898710	     -5.94481186	      1.68877532	      0.67168854	     -0.16985949	    -11.45418584	      3.64820709	      4.43247340	     -3.42238387	     20.09912904	     -4.63439281	      0.00000000	     19.62653111	     -0.36720720	     -4.81620205	      1.91109455	      7.92001845	     -8.02934748	      0.00000000	     -9.94984266	     -2.17333737	      4.02550830
